<svg width="27" height="27" viewBox="0 0 27 27" fill="none" xmlns="http://www.w3.org/2000/svg">
<g clip-path="url(#clip0_257_1047)">
<g clip-path="url(#clip1_257_1047)">
<path d="M13.4992 27.0938C19.4352 27.0938 24.4648 23.3328 26.3227 18.0312H0.675781C2.53359 23.3328 7.56328 27.0938 13.4992 27.0938Z" fill="#F9F9F9"/>
<path d="M13.4992 -0.09375C7.56328 -0.09375 2.53359 3.7125 0.675781 8.96875H26.3227C24.4648 3.7125 19.4352 -0.09375 13.4992 -0.09375Z" fill="#42ADE2"/>
<path d="M26.3234 18.0312C26.8219 16.6266 27.0938 15.0859 27.0938 13.5C27.0938 11.9141 26.8219 10.3734 26.3234 8.96875H0.676563C0.178125 10.3734 -0.09375 11.9141 -0.09375 13.5C-0.09375 15.0859 0.178125 16.6266 0.676563 18.0312H26.3234Z" fill="#3E4347"/>
</g>
</g>
<defs>
<clipPath id="clip0_257_1047">
<rect width="27" height="27" fill="white"/>
</clipPath>
<clipPath id="clip1_257_1047">
<rect width="29" height="29" fill="white" transform="translate(-1 -1)"/>
</clipPath>
</defs>
</svg>
